<svg height="464pt" viewBox="0 0 464 464.00722" width="464pt" xmlns="http://www.w3.org/2000/svg"><path d="m464.003906 48.007812v368l-120 48v-368zm0 0" fill="#005e9c"/><path d="m344.003906 96.007812v368l-112-48v-360l2.878906-6.71875zm0 0" fill="#168fba"/><path d="m232.003906 56.007812v360l-112 48v-368l112-48 2.878906 1.28125zm0 0" fill="#005e9c"/><path d="m120.003906 432.007812v32l-119.99999975-48v-368l119.99999975 48zm0 0" fill="#168fba"/><path d="m128.003906 288.007812c.003906-25.089843-19.3125-45.949218-44.328125-47.867187s-47.289062 15.75-51.113281 40.546875c-3.820312 24.796875 12.097656 48.351562 36.527344 54.054688l10.914062 31.808593 10.910156-31.808593c21.707032-5.09375 37.058594-24.441407 37.089844-46.734376zm0 0" fill="#ad2943"/><path d="m424.003906 48.007812c.003906-25.089843-19.3125-45.949218-44.328125-47.867187s-47.289062 15.75-51.113281 40.546875c-3.820312 24.796875 12.097656 48.351562 36.527344 54.054688l10.914062 31.808593 10.910156-31.808593c21.707032-5.09375 37.058594-24.441407 37.089844-46.734376zm0 0" fill="#ad2943"/><path d="m164.003906 416.007812h-84v-16h84c6.628906 0 12-5.375 12-12v-56c0-15.464843 12.535156-28 28-28h168c6.628906 0 12-5.375 12-12v-16c0-6.628906-5.371094-12-12-12h-80c-15.464844 0-28-12.535156-28-28 0-6.628906-5.371094-12-12-12h-96c-15.464844 0-28-12.535156-28-28v-8c0-15.464843 12.535156-28 28-28h220v16h-220c-6.628906 0-12 5.371094-12 12v8c0 6.625 5.371094 12 12 12h96c15.464844 0 28 12.535157 28 28 0 6.625 5.371094 12 12 12h80c15.464844 0 28 12.535157 28 28v16c0 15.464844-12.535156 28-28 28h-168c-6.628906 0-12 5.371094-12 12v56c0 15.464844-12.535156 28-28 28zm0 0" fill="#f29a2b"/><path d="m392.003906 168.007812c0 8.835938-7.164062 16-16 16-8.835937 0-16-7.164062-16-16 0-8.835937 7.164063-16 16-16 8.835938 0 16 7.164063 16 16zm0 0" fill="#de722a"/><path d="m96.003906 408.007812c0 8.835938-7.164062 16-16 16-8.835937 0-16-7.164062-16-16 0-8.835937 7.164063-16 16-16 8.835938 0 16 7.164063 16 16zm0 0" fill="#de722a"/><g fill="#ee3446"><path d="m96.003906 288.007812c0 8.835938-7.164062 16-16 16-8.835937 0-16-7.164062-16-16 0-8.835937 7.164063-16 16-16 8.835938 0 16 7.164063 16 16zm0 0"/><path d="m392.003906 48.007812c0 8.835938-7.164062 16-16 16-8.835937 0-16-7.164062-16-16 0-8.835937 7.164063-16 16-16 8.835938 0 16 7.164063 16 16zm0 0"/></g></svg>