<?xml version="1.0" encoding="iso-8859-1"?>
<!-- Generator: Adobe Illustrator 19.0.0, SVG Export Plug-In . SVG Version: 6.00 Build 0)  -->
<svg version="1.1" id="Capa_1" xmlns="http://www.w3.org/2000/svg" xmlns:xlink="http://www.w3.org/1999/xlink" x="0px" y="0px"
	 viewBox="0 0 512 512" style="enable-background:new 0 0 512 512;" xml:space="preserve">
<g>
	<polygon style="fill:#A4C8EB;" points="181.667,65.085 207.701,108.475 146.955,108.475 	"/>
	<polygon style="fill:#A4C8EB;" points="233.735,65.085 251.091,108.475 207.701,108.475 	"/>
</g>
<polygon style="fill:#0C67B4;" points="251.091,108.475 199.023,151.864 155.633,151.864 103.565,108.475 146.955,108.475 
	207.701,108.475 "/>
<g>
	<polygon style="fill:#C7E1FA;" points="233.735,65.085 207.701,108.475 181.667,65.085 	"/>
	<polygon style="fill:#C7E1FA;" points="181.667,65.085 146.955,108.475 120.921,65.085 	"/>
</g>
<polygon style="fill:#A4C8EB;" points="120.921,65.085 146.955,108.475 103.565,108.475 "/>
<path style="fill:#FFC100;" d="M293.179,195.515c76.019,61.423,87.847,172.83,26.433,248.849s-172.83,87.847-248.849,26.433
	s-87.847-172.83-26.433-248.849c50.757-62.828,137.615-83.308,211.1-49.777c-13.841,6.335-26.824,14.414-38.617,24.038l-0.955-1.128
	c-76.783-18.935-154.372,27.96-173.308,104.734s27.96,154.372,104.734,173.308c11.247,2.777,22.797,4.174,34.382,4.165
	c25.991,0.009,51.495-7.073,73.763-20.48c67.766-40.717,89.695-128.66,48.978-196.417c-11.698-19.473-27.865-35.875-47.156-47.868
	l-0.955-1.649C267.805,204.028,280.223,198.856,293.179,195.515z"/>
<path style="fill:#EBB104;" d="M329.193,156.203c98.252,0.052,177.855,79.751,177.794,178.002
	C506.926,432.458,427.245,512.052,328.993,512c-25.383-0.017-50.462-5.458-73.563-15.967c13.512-6.17,26.199-14.006,37.749-23.344
	c11.759,3.072,23.864,4.625,36.014,4.599c79.082,0,143.186-64.104,143.186-143.186s-64.104-143.186-143.186-143.186
	c-25.652-0.009-50.827,6.882-72.895,19.959c-68.053,40.274-90.581,128.095-50.306,196.148c12.097,20.437,29.08,37.55,49.438,49.785
	c-11.741,7.099-24.463,12.453-37.749,15.881c-76.566-61.518-88.767-173.464-27.249-250.03
	C224.215,180.615,275.259,156.169,329.193,156.203z"/>
<g>
	
		<rect x="277.868" y="34.749" transform="matrix(-0.7071 0.7071 -0.7071 -0.7071 526.0059 -131.0242)" style="fill:#C7E1FA;" width="24.541" height="17.356"/>
	
		<rect x="55.837" y="31.119" transform="matrix(-0.7071 0.7071 -0.7071 -0.7071 140.8153 28.4507)" style="fill:#C7E1FA;" width="17.356" height="24.541"/>
	<rect x="168.65" style="fill:#C7E1FA;" width="17.356" height="26.034"/>
</g>
<g>
</g>
<g>
</g>
<g>
</g>
<g>
</g>
<g>
</g>
<g>
</g>
<g>
</g>
<g>
</g>
<g>
</g>
<g>
</g>
<g>
</g>
<g>
</g>
<g>
</g>
<g>
</g>
<g>
</g>
</svg>
