<?xml version="1.0" encoding="iso-8859-1"?>
<!-- Generator: Adobe Illustrator 19.0.0, SVG Export Plug-In . SVG Version: 6.00 Build 0)  -->
<svg version="1.1" id="Capa_1" xmlns="http://www.w3.org/2000/svg" xmlns:xlink="http://www.w3.org/1999/xlink" x="0px" y="0px"
	 viewBox="0 0 464 464" style="enable-background:new 0 0 464 464;" xml:space="preserve">
<path style="fill:#168DE2;" d="M200,64h64h64h64h72v72H0V64h72h64H200z"/>
<path style="fill:#DAEFF6;" d="M0,136h464v304H0V136z"/>
<g>
	<path style="fill:#454545;" d="M64,24h16v88H64V24z"/>
	<path style="fill:#454545;" d="M128,24h16v88h-16V24z"/>
	<path style="fill:#454545;" d="M192,24h16v88h-16V24z"/>
	<path style="fill:#454545;" d="M256,24h16v88h-16V24z"/>
	<path style="fill:#454545;" d="M320,24h16v88h-16V24z"/>
	<path style="fill:#454545;" d="M384,24h16v88h-16V24z"/>
</g>
<g>
	<path style="fill:#168DE2;" d="M56,192h16v24H56V192z"/>
	<path style="fill:#168DE2;" d="M112,192h16v24h-16V192z"/>
	<path style="fill:#168DE2;" d="M168,192h16v24h-16V192z"/>
	<path style="fill:#168DE2;" d="M224,192h16v24h-16V192z"/>
	<path style="fill:#168DE2;" d="M280,192h16v24h-16V192z"/>
	<path style="fill:#168DE2;" d="M336,192h16v24h-16V192z"/>
	<path style="fill:#168DE2;" d="M392,192h16v24h-16V192z"/>
	<path style="fill:#168DE2;" d="M56,248h16v24H56V248z"/>
	<path style="fill:#168DE2;" d="M112,248h16v24h-16V248z"/>
	<path style="fill:#168DE2;" d="M168,248h16v24h-16V248z"/>
	<path style="fill:#168DE2;" d="M224,248h16v24h-16V248z"/>
	<path style="fill:#168DE2;" d="M280,248h16v24h-16V248z"/>
	<path style="fill:#168DE2;" d="M336,248h16v24h-16V248z"/>
	<path style="fill:#168DE2;" d="M392,248h16v24h-16V248z"/>
	<path style="fill:#168DE2;" d="M56,304h16v24H56V304z"/>
	<path style="fill:#168DE2;" d="M112,304h16v24h-16V304z"/>
	<path style="fill:#168DE2;" d="M168,304h16v24h-16V304z"/>
	<path style="fill:#168DE2;" d="M224,304h16v24h-16V304z"/>
	<path style="fill:#168DE2;" d="M280,304h16v24h-16V304z"/>
	<path style="fill:#168DE2;" d="M336,304h16v24h-16V304z"/>
	<path style="fill:#168DE2;" d="M392,304h16v24h-16V304z"/>
	<path style="fill:#168DE2;" d="M56,360h16v24H56V360z"/>
	<path style="fill:#168DE2;" d="M112,360h16v24h-16V360z"/>
	<path style="fill:#168DE2;" d="M168,360h16v24h-16V360z"/>
	<path style="fill:#168DE2;" d="M224,360h16v24h-16V360z"/>
	<path style="fill:#168DE2;" d="M280,360h16v24h-16V360z"/>
	<path style="fill:#168DE2;" d="M336,360h16v24h-16V360z"/>
	<path style="fill:#168DE2;" d="M392,360h16v24h-16V360z"/>
</g>
<g>
</g>
<g>
</g>
<g>
</g>
<g>
</g>
<g>
</g>
<g>
</g>
<g>
</g>
<g>
</g>
<g>
</g>
<g>
</g>
<g>
</g>
<g>
</g>
<g>
</g>
<g>
</g>
<g>
</g>
</svg>
