<svg height="640pt" viewBox="-20 -20 640.0023 640" width="640pt" xmlns="http://www.w3.org/2000/svg"><path d="m0 169.992188v19.996093c11.042969 0 20 8.957031 20 20 0 5.523438 4.476562 10 10 10 5.519531 0 9.996094-4.476562 9.996094-10 0-11.042969 8.957031-20 20-20v-19.996093c-11.488282-.007813-22.421875 4.9375-29.996094 13.566406-7.578125-8.628906-18.511719-13.574219-30-13.566406zm0 0"/><path d="m39.996094 229.988281v19.996094c11.046875 0 20 8.957031 20 20 0 5.523437 4.476562 10 10 10 5.523437 0 10-4.476563 10-10 0-11.042969 8.953125-20 20-20v-19.996094c-11.488282-.007812-22.421875 4.941407-30 13.566407-7.578125-8.625-18.507813-13.574219-30-13.566407zm0 0"/><path d="m349.980469 0v20c11.046875 0 20 8.953125 20 19.996094 0 5.523437 4.476562 10 10 10 5.523437 0 10-4.476563 10-10 0-11.042969 8.953125-19.996094 20-19.996094v-20c-11.492188-.00390625-22.421875 4.941406-30 13.566406-7.578125-8.625-18.511719-13.57031225-30-13.566406zm0 0"/><path d="m549.972656 89.996094c16.007813.019531 30.484375-9.511719 36.796875-24.222656 6.316407-14.710938 3.25-31.773438-7.796875-43.363282-11.039062-11.589844-27.933594-15.484375-42.929687-9.890625-9.609375-9.226562-22.816407-13.710937-36.054688-12.246093-13.242187 1.464843-25.148437 8.722656-32.511719 19.828124-12.796874-.972656-25.101562 5.144532-32.054687 15.9375-6.957031 10.785157-7.445313 24.511719-1.28125 35.773438 6.164063 11.253906 18 18.234375 30.835937 18.183594zm-99.996094-35c-.09375-4.828125 2.191407-9.398438 6.113282-12.226563 3.925781-2.820312 8.984375-3.539062 13.535156-1.921875 4.941406 1.621094 10.292969-.816406 12.316406-5.601562 3.558594-8.34375 11.359375-14.109375 20.382813-15.058594 9.019531-.949219 17.847656 3.058594 23.066406 10.480469 3.101563 4.417969 9.148437 5.574219 13.664063 2.621093 7.148437-4.703124 16.496093-4.335937 23.253906.917969 6.757812 5.246094 9.429687 14.21875 6.640625 22.308594-2.792969 8.089844-10.417969 13.507813-18.976563 13.480469h-84.996094c-8.285156 0-15-6.714844-15-15zm0 0"/><path d="m152.492188 400.082031c-7.363282-11.105469-19.265626-18.363281-32.503907-19.828125-13.242187-1.460937-26.445312 3.019532-36.050781 12.246094-15-5.59375-31.890625-1.699219-42.933594 9.886719-11.039062 11.589843-14.109375 28.644531-7.796875 43.359375 6.308594 14.710937 20.78125 24.242187 36.789063 24.226562h84.996094c12.835937.054688 24.671874-6.925781 30.832031-18.179687 6.167969-11.261719 5.679687-24.988281-1.277344-35.777344-6.953125-10.789063-19.257813-16.90625-32.054687-15.933594zm2.5 49.894531h-84.996094c-8.558594.027344-16.183594-5.390624-18.976563-13.480468-2.789062-8.089844-.117187-17.0625 6.636719-22.308594 6.757812-5.253906 16.109375-5.621094 23.257812-.917969 4.515626 2.953125 10.5625 1.796875 13.660157-2.621093 5.21875-7.421876 14.046875-11.433594 23.070312-10.480469 9.023438.949219 16.820313 6.714843 20.378907 15.058593 2.027343 4.785157 7.378906 7.222657 12.320312 5.601563 5.664062-1.988281 11.972656-.40625 16.023438 4.023437 4.058593 4.425782 5.082031 10.847657 2.609374 16.316407-2.480468 5.472656-7.980468 8.933593-13.984374 8.808593zm0 0"/><path d="m459.976562 219.988281c0-85.585937-64.046874-138.992187-167.273437-139.902343-.90625 0-1.757813-.089844-2.679687-.089844-104.851563 0-169.992188 53.636718-169.992188 139.992187v9.609375c.050781 47.644532 20.042969 93.085938 55.128906 125.316406l37.71875 34.578126c18.105469 16.59375 30.996094 38.097656 37.109375 61.882812v38.597656h-10c-5.523437 0-10 4.476563-10 10v89.996094c0 5.523438 4.476563 10 10 10h99.992188c5.523437 0 10-4.476562 10-10v-89.996094c0-5.523437-4.476563-10-10-10h-9.996094v-38.597656c6.121094-23.789062 19.03125-45.292969 37.144531-61.882812l37.71875-34.578126c35.089844-32.230468 55.078125-77.671874 55.128906-125.316406zm-167.441406-116.140625c31.339844 29.390625 51.96875 68.40625 58.617188 110.863282l-53.648438-61.308594c-1.949218-2.058594-4.664062-3.226563-7.5-3.226563-2.835937 0-5.546875 1.167969-7.5 3.226563l-50.996094 58.253906c8.148438-41.589844 29.5625-79.417969 61.027344-107.808594zm-9.621094 213.207032c3.90625 3.902343 10.234376 3.902343 14.140626 0l52.679687-52.679688c-5.65625 27.761719-16.878906 54.089844-33.003906 77.386719l-7.375 11.070312c-8.039063 12.058594-14.542969 25.070313-19.371094 38.738281-4.839844-13.667968-11.359375-26.679687-19.40625-38.738281l-5.332031-8.003906c-16.417969-23.714844-27.789063-50.546875-33.40625-78.84375zm-49.234374-77.515626 56.304687-64.359374 56.304687 64.359374-56.304687 56.304688zm33.855468-138.542968c-29.007812 29.816406-48.433594 67.628906-55.789062 108.570312l-23.4375-35.15625c-1.664063-2.46875-4.339844-4.0625-7.300782-4.355468-2.960937-.292969-5.898437.746093-8.019531 2.835937l-32.066406 31.820313c6.523437-60.007813 52.457031-97.476563 126.613281-103.714844zm-59.925781 138.453125-27.75 34.695312-36.335937-43.882812 34.886718-34.625zm18.742187 135.300781-37.722656-34.578125c-22.753906-20.921875-38.503906-48.355469-45.105468-78.554687l28.765624 34.75c1.875 2.367187 4.761719 3.703124 7.78125 3.617187 3.011719-.019531 5.847657-1.402344 7.726563-3.75l24.003906-30c5.671875 32.214844 18.226563 62.824219 36.804688 89.746094l5.332031 8c15.097656 22.628906 23.957031 48.84375 25.675781 75.996093h-11.996093c-7.6875-25.039062-21.9375-47.554687-41.265626-65.226562zm83.632813 85.226562v29.996094h-40v-29.996094zm20 119.992188h-79.996094v-69.996094h79.996094zm61.359375-239.796875-37.722656 34.578125c-19.316406 17.675781-33.554688 40.191406-41.226563 65.226562h-12c1.695313-27.144531 10.523438-53.355468 25.589844-75.996093l7.378906-11.070313c17.613281-25.558594 29.933594-54.390625 36.21875-84.796875l22.535157 28.167969c1.878906 2.351562 4.71875 3.730469 7.726562 3.757812 3.007812.023438 5.867188-1.304687 7.785156-3.625l28.769532-34.75c-6.597657 30.179688-22.328126 57.589844-45.054688 78.507813zm-18.585938-100.183594c0-.382812 0-.757812 0-1.140625l28.777344-43.164062 34.890625 34.617187-36.335937 43.882813zm34.273438-67.058593c-2.125-2.105469-5.078125-3.152344-8.054688-2.851563-2.972656.296875-5.65625 1.914063-7.316406 4.402344l-21.078125 31.578125c-7.28125-39.207032-25.679687-75.496094-53-104.542969 71.109375 7.511719 115.054688 44.609375 121.476563 103.195313zm0 0"/><path d="m566.726562 460.546875c-6.882812-20.21875-24.015624-35.238281-44.960937-39.417969-20.945313-4.175781-42.53125 3.121094-56.648437 19.148438-1.707032-.199219-3.421876-.296875-5.140626-.300782-27.613281 0-49.996093 22.386719-49.996093 49.996094 0 27.617188 22.382812 50 49.996093 50 8.328126.003906 16.527344-2.105468 23.816407-6.140625 17.050781 8.308594 37.023437 8.058594 53.859375-.683593 6.582031 4.46875 14.359375 6.847656 22.316406 6.824218 20.785156.019532 38.125-15.894531 39.886719-36.605468 1.761719-20.710938-12.636719-39.324219-33.128907-42.820313zm-6.757812 59.425781c-5.375.019532-10.53125-2.144531-14.28125-6-3.417969-3.496094-8.863281-4.003906-12.875-1.199218-13.148438 9.097656-30.449219 9.488281-44 .996093-3.46875-2.171875-7.914062-2.015625-11.214844.402344-10.507812 7.699219-24.78125 7.738281-35.332031.097656-10.546875-7.640625-14.957031-21.214843-10.921875-33.597656 4.039062-12.382813 15.609375-20.746094 28.632812-20.695313 2.339844.03125 4.667969.339844 6.9375.910157 3.980469.929687 8.125-.652344 10.472657-4.003907 9.175781-13.058593 25.253906-19.390624 40.878906-16.105468 15.617187 3.289062 27.773437 15.574218 30.90625 31.226562.949219 4.660156 5.046875 8.003906 9.796875 8 .476562 0 .953125-.035156 1.421875-.097656 11.0625.117188 19.941406 9.179688 19.824219 20.242188-.117188 11.0625-9.179688 19.941406-20.246094 19.824218zm0 0"/></svg>