<?xml version="1.0" encoding="iso-8859-1"?>
<!-- Generator: Adobe Illustrator 19.0.0, SVG Export Plug-In . SVG Version: 6.00 Build 0)  -->
<svg version="1.1" id="Capa_1" xmlns="http://www.w3.org/2000/svg" xmlns:xlink="http://www.w3.org/1999/xlink" x="0px" y="0px"
	 viewBox="0 0 480.002 480.002" style="enable-background:new 0 0 480.002 480.002;" xml:space="preserve">
<g>
	<g>
		<rect x="120" y="320.001" width="16" height="16"/>
	</g>
</g>
<g>
	<g>
		<rect x="136" y="304.001" width="16" height="16"/>
	</g>
</g>
<g>
	<g>
		<rect x="328" y="320.001" width="16" height="16"/>
	</g>
</g>
<g>
	<g>
		<rect x="344" y="304.001" width="16" height="16"/>
	</g>
</g>
<g>
	<g>
		<path d="M240,136.001c-17.673,0-32,14.327-32,32v16h64v-16C272,150.328,257.673,136.001,240,136.001z M224,168.001
			c0-8.837,7.163-16,16-16s16,7.163,16,16H224z"/>
	</g>
</g>
<g>
	<g>
		<path d="M472,400.001h-24v-63.032l7.76-31.032c0.16-0.633,0.241-1.283,0.24-1.936v-11.72l20.44-13.6
			c3.676-2.452,4.668-7.42,2.216-11.096s-7.42-4.668-11.096-2.216L456,273.057v-33.056c0-4.418-3.582-8-8-8s-8,3.582-8,8v63.016
			l-5.008,20L424,315.721v-43.72c0-4.418-3.582-8-8-8s-8,3.582-8,8v48c0,2.674,1.335,5.172,3.56,6.656L432,340.281v59.72h-40v-184
			c0-4.418-3.582-8-8-8h-32c-4.418,0-8,3.582-8,8v24h-16v-24c0-4.418-3.582-8-8-8h-32c-4.418,0-8,3.582-8,8v24h-16v-24
			c0-4.418-3.582-8-8-8h-32c-4.418,0-8,3.582-8,8v24h-16v-24c0-4.418-3.582-8-8-8h-32c-4.418,0-8,3.582-8,8v24h-16v-24
			c0-4.418-3.582-8-8-8H96c-4.418,0-8,3.582-8,8v184H72v-48c-0.055-14.547-9.914-27.227-24-30.864v-25.136h16c4.418,0,8-3.582,8-8
			s-3.582-8-8-8H48v-8c0-4.418-3.582-8-8-8s-8,3.582-8,8v8H16c-4.418,0-8,3.582-8,8s3.582,8,8,8h16v25.136
			c-14.086,3.637-23.945,16.317-24,30.864v48c-4.418,0-8,3.582-8,8v64c0,4.418,3.582,8,8,8h464c4.418,0,8-3.582,8-8v-64
			C480,403.583,476.418,400.001,472,400.001z M104,224.001h16v24c0,4.418,3.582,8,8,8h32c4.418,0,8-3.582,8-8v-24h16v24
			c0,4.418,3.582,8,8,8h32c4.418,0,8-3.582,8-8v-24h16v24c0,4.418,3.582,8,8,8h32c4.418,0,8-3.582,8-8v-24h16v24
			c0,4.418,3.582,8,8,8h32c4.418,0,8-3.582,8-8v-24h16v176h-72v-48c0-35.346-28.654-64-64-64c-35.346,0-64,28.654-64,64v48h-72
			V224.001z M288,352.001v48h-96v-48c0-26.51,21.49-48,48-48C266.51,304.001,288,325.492,288,352.001z M24,352.001
			c0-8.837,7.163-16,16-16s16,7.163,16,16v48H24V352.001z M464,464.001H16v-48h448V464.001z"/>
	</g>
</g>
<g>
	<g>
		<path d="M336,64.001h-32c-4.418,0-8,3.582-8,8v24h-32v-24c0-4.418-3.582-8-8-8h-32c-4.418,0-8,3.582-8,8v24h-32v-24
			c0-4.418-3.582-8-8-8h-32c-4.418,0-8,3.582-8,8v120.168c0,4.418,3.582,8,8,8s8-3.582,8-8V80.001h16v24c0,4.418,3.582,8,8,8h48
			c4.418,0,8-3.582,8-8v-24h16v24c0,4.418,3.582,8,8,8h48c4.418,0,8-3.582,8-8v-24h16v112.248c0,4.418,3.582,8,8,8s8-3.582,8-8
			V72.001C344,67.583,340.418,64.001,336,64.001z"/>
	</g>
</g>
<g>
	<g>
		<path d="M91.344,85.017c-16.025-7.262-23.129-26.139-15.868-42.164c3.19-7.039,8.829-12.678,15.868-15.868
			c4.012-1.85,5.765-6.602,3.915-10.615c-0.476-1.033-1.167-1.953-2.027-2.697C69.855-6.576,34.488-4.041,14.239,19.336
			C-6.011,42.713-3.476,78.08,19.901,98.329c21.045,18.229,52.286,18.229,73.331,0c3.34-2.893,3.702-7.945,0.809-11.285
			C93.297,86.185,92.377,85.494,91.344,85.017z M20.279,72.795c-9.275-20.05-0.54-43.823,19.511-53.097
			c10.653-4.928,22.934-4.928,33.587,0c-10.595,9.091-16.708,22.344-16.744,36.304c0.036,13.96,6.149,27.213,16.744,36.304
			C53.326,101.58,29.553,92.845,20.279,72.795z"/>
	</g>
</g>
<g>
	<g>
		<path d="M453.816,119.713c-4.023-12.049-17.052-18.555-29.1-14.532c-6.859,2.29-12.241,7.673-14.532,14.532
			c-15.25,3.241-26.162,16.697-26.184,32.288c0,4.418,3.582,8,8,8h80c4.418,0,8-3.582,8-8
			C479.978,136.411,469.066,122.954,453.816,119.713z M402,144.001c2.956-5.538,8.722-8.998,15-9c4.418,0,8-3.582,8-8
			c0-3.866,3.134-7,7-7c3.866,0,7,3.134,7,7c0,4.418,3.582,8,8,8c6.278,0.002,12.044,3.462,15,9H402z"/>
	</g>
</g>
<g>
	<g>
		<path d="M429.816,47.713c-4.023-12.049-17.052-18.555-29.1-14.532c-6.859,2.29-12.241,7.673-14.532,14.532
			c-15.25,3.241-26.162,16.697-26.184,32.288c0,4.418,3.582,8,8,8h80c4.418,0,8-3.582,8-8
			C455.978,64.411,445.066,50.954,429.816,47.713z M378,72.001c2.956-5.538,8.722-8.998,15-9c4.418,0,8-3.582,8-8
			c0-3.866,3.134-7,7-7c3.866,0,7,3.134,7,7c0,4.418,3.582,8,8,8c6.278,0.002,12.044,3.462,15,9H378z"/>
	</g>
</g>
<g>
</g>
<g>
</g>
<g>
</g>
<g>
</g>
<g>
</g>
<g>
</g>
<g>
</g>
<g>
</g>
<g>
</g>
<g>
</g>
<g>
</g>
<g>
</g>
<g>
</g>
<g>
</g>
<g>
</g>
</svg>
