<?xml version="1.0" encoding="iso-8859-1"?>
<!-- Generator: Adobe Illustrator 19.0.0, SVG Export Plug-In . SVG Version: 6.00 Build 0)  -->
<svg version="1.1" id="Capa_1" xmlns="http://www.w3.org/2000/svg" xmlns:xlink="http://www.w3.org/1999/xlink" x="0px" y="0px"
	 viewBox="0 0 480 480" style="enable-background:new 0 0 480 480;" xml:space="preserve">
<g>
	<g>
		<path d="M451.528,370.967c18.129-20.793,28.227-47.383,28.472-74.968c0-72.8-71.776-132-160-132c-0.272,0-0.536,0-0.8,0
			c0.507-3.98,0.775-7.988,0.8-12c0-72.8-71.776-132-160-132s-160,59.2-160,132c0.238,27.582,10.328,54.171,28.448,74.968
			L0.472,305.311c-1.485,4.161,0.685,8.738,4.847,10.223c1.833,0.654,3.841,0.617,5.649-0.103l96.872-38.752
			c17.207,4.886,35.026,7.276,52.912,7.096c-0.481,4.057-0.732,8.138-0.752,12.224c0,72.8,71.776,132,160,132
			c17.642-0.006,35.198-2.47,52.16-7.32l96.872,38.752c4.104,1.635,8.758-0.366,10.393-4.471c0.72-1.808,0.757-3.816,0.103-5.649
			L451.528,370.967z M171.672,246.799c-0.648,1.344-1.216,2.728-1.816,4.096c-2.494,5.521-4.543,11.233-6.128,17.08
			c-18.277,0.546-36.518-1.935-53.984-7.344c-1.734-0.512-3.59-0.431-5.272,0.232l-82.968,33.12l23.584-66.04
			c0.988-2.773,0.373-5.864-1.6-8.048C26.135,201.51,16.324,177.277,16,151.999c0-63.96,64.6-116,144-116s144,52.04,144,116
			c-0.018,4.285-0.352,8.564-1,12.8c-7.635,0.708-15.22,1.881-22.712,3.512c-1.264,0.264-2.528,0.52-3.776,0.8
			c-2.747,0.64-5.456,1.339-8.128,2.096c-2.208,0.608-4.368,1.28-6.528,1.976c-1.944,0.624-3.904,1.232-5.808,1.92
			c-30.67,10.367-57.221,30.27-75.776,56.8c-0.712,1.048-1.376,2.112-2.048,3.2c-1.36,2.171-2.648,4.373-3.864,6.608
			C173.432,243.399,172.52,245.079,171.672,246.799z M375.528,404.799c-0.943-0.38-1.951-0.576-2.968-0.576
			c-0.781-0.001-1.557,0.115-2.304,0.344c-16.298,4.923-33.231,7.427-50.256,7.432c-79.4,0-144-52-144-116
			c0.057-6.334,0.751-12.645,2.072-18.84c0.656-3.2,1.48-6.4,2.4-9.456l0.264-0.8c0.917-2.891,1.968-5.731,3.152-8.52
			c0.272-0.632,0.568-1.248,0.856-1.88c1.096-2.456,2.248-4.88,3.536-7.256c0.8-1.464,1.72-2.888,2.592-4.328s1.8-3.08,2.808-4.568
			c4.433-6.47,9.498-12.484,15.12-17.952c0.152-0.152,0.32-0.296,0.48-0.448c2.736-2.667,5.613-5.216,8.632-7.648
			c0.256-0.216,0.52-0.416,0.8-0.632c2.933-2.341,5.997-4.584,9.192-6.728l1.056-0.712c3.125-2.059,6.36-4.008,9.704-5.848
			l1.336-0.752c3.344-1.808,6.808-3.48,10.344-5.064c0.456-0.2,0.888-0.44,1.344-0.632c3.688-1.6,7.488-3.072,11.36-4.416
			c2.752-0.952,5.6-1.768,8.424-2.584c1.04-0.304,2.056-0.632,3.104-0.92c3.296-0.872,6.664-1.6,10.056-2.32
			c0.576-0.12,1.144-0.248,1.72-0.36c3.664-0.704,7.392-1.296,11.16-1.768l0.68-0.088c4-0.48,8-0.848,12.048-1.072l0.016-0.008
			c3.24-0.176,6.456-0.4,9.744-0.4c79.4,0,144,52,144,116c-0.327,25.279-10.141,49.513-27.496,67.896
			c-1.973,2.184-2.588,5.275-1.6,8.048l23.592,66.04L375.528,404.799z"/>
	</g>
</g>
<g>
	<g>
		<rect x="232" y="235.999" width="176" height="16"/>
	</g>
</g>
<g>
	<g>
		<rect x="232" y="267.999" width="176" height="16"/>
	</g>
</g>
<g>
	<g>
		<rect x="232" y="299.999" width="176" height="16"/>
	</g>
</g>
<g>
	<g>
		<rect x="232" y="331.999" width="176" height="16"/>
	</g>
</g>
<g>
	<g>
		<path d="M197.664,102.343c-16.407-16.366-42.974-16.333-59.34,0.074c-10.616,10.642-14.728,26.15-10.78,40.654l15.432-4.208
			c-0.608-2.237-0.915-4.546-0.912-6.864c-0.005-14.324,11.603-25.94,25.927-25.945c6.884-0.002,13.486,2.732,18.353,7.601
			c10.513,10.618,11.16,27.514,1.488,38.904l-16.544,19.32c-7.288,8.498-11.292,19.325-11.288,30.52v1.6h16v-1.6
			c0.001-7.367,2.64-14.491,7.44-20.08L200,162.975C215.075,145.221,214.06,118.884,197.664,102.343z"/>
	</g>
</g>
<g>
	<g>
		<rect x="160" y="219.999" width="16" height="16"/>
	</g>
</g>
<g>
</g>
<g>
</g>
<g>
</g>
<g>
</g>
<g>
</g>
<g>
</g>
<g>
</g>
<g>
</g>
<g>
</g>
<g>
</g>
<g>
</g>
<g>
</g>
<g>
</g>
<g>
</g>
<g>
</g>
</svg>
