<?xml version="1.0" encoding="iso-8859-1"?>
<!-- Generator: Adobe Illustrator 19.0.0, SVG Export Plug-In . SVG Version: 6.00 Build 0)  -->
<svg version="1.1" id="Capa_1" xmlns="http://www.w3.org/2000/svg" xmlns:xlink="http://www.w3.org/1999/xlink" x="0px" y="0px"
	 viewBox="0 0 464 464" style="enable-background:new 0 0 464 464;" xml:space="preserve">
<path style="fill:#FFBD20;" d="M150.08,153.729c-10.765-5.253-15.233-18.238-9.98-29.002s18.238-15.233,29.002-9.98
	s15.233,18.238,9.98,29.002c-1.604,3.287-4.013,6.114-7.002,8.22l44.8,46.4c-4.252,4.074-6.651,9.711-6.64,15.6
	c0,12.018,9.742,21.76,21.76,21.76c12.018,0,21.76-9.742,21.76-21.76c0.011-5.889-2.388-11.526-6.64-15.6l44.8-46.4
	c-9.874-6.904-12.283-20.506-5.379-30.38c6.904-9.874,20.506-12.283,30.38-5.379c9.874,6.904,12.283,20.506,5.379,30.38
	c-2.137,3.057-5.022,5.514-8.38,7.139l42.08,43.52c-9.253,7.627-10.57,21.311-2.943,30.564c7.627,9.253,21.311,10.57,30.564,2.943
	c8.823-7.273,10.493-20.143,3.819-29.427l54.8-45.36L406,351.729H58l-36.16-195.44h0.32l54.4,45.04
	c-7.063,9.745-4.89,23.37,4.855,30.434c9.745,7.063,23.37,4.89,30.434-4.855c6.774-9.345,5.086-22.352-3.849-29.659L150.08,153.729z
	"/>
<g>
	<path style="fill:#D32144;" d="M159.008,112.769c12.018-0.11,21.85,9.542,21.96,21.56c0.11,12.018-9.542,21.85-21.56,21.96l0,0
		l-0.4-0.32l0.08,0.32h-0.08c-12.018,0-21.76-9.742-21.76-21.76C137.248,122.511,146.99,112.769,159.008,112.769z"/>
	<path style="fill:#D32144;" d="M304.8,112.769c12.018-0.11,21.85,9.542,21.96,21.56c0.11,12.018-9.542,21.85-21.56,21.96l0,0
		l-0.4-0.32l0.08,0.32h-0.08c-12.018,0-21.76-9.742-21.76-21.76C283.04,122.511,292.782,112.769,304.8,112.769z"/>
	<path style="fill:#D32144;" d="M21.76,112.769c12.018-0.11,21.85,9.542,21.96,21.56s-9.542,21.85-21.56,21.96l-0.4-0.32l0.08,0.32
		h-0.08c-12.018,0-21.76-9.742-21.76-21.76C0,122.511,9.742,112.769,21.76,112.769z"/>
	<circle style="fill:#D32144;" cx="442.24" cy="134.209" r="21.76"/>
</g>
<g>
	<path style="fill:#FBA832;" d="M80,279.729h304v16H80V279.729z"/>
	<path style="fill:#FBA832;" d="M80,311.729h304v16H80V311.729z"/>
</g>
<g>
</g>
<g>
</g>
<g>
</g>
<g>
</g>
<g>
</g>
<g>
</g>
<g>
</g>
<g>
</g>
<g>
</g>
<g>
</g>
<g>
</g>
<g>
</g>
<g>
</g>
<g>
</g>
<g>
</g>
</svg>
