<svg height="488pt" viewBox="0 -3 488 487" width="488pt" xmlns="http://www.w3.org/2000/svg"><path d="m109.441406 464.511719h242.558594c48.578125-.058594 87.941406-39.421875 88-88v-8c-.058594-48.578125-39.421875-87.941407-88-88h-216c-39.765625 0-72-32.234375-72-72s32.234375-72 72-72h242.558594c7.503906 10.976562 30.546875 16 53.441406 16 27.871094 0 56-7.425781 56-24 0-13.601563-18.847656-21-40.984375-23.25l22.9375-27.375c1.210937-1.558594 2.324219-3.191407 3.328125-4.894531l.085938-.136719c.074218-.113281.128906-.230469.199218-.34375 11.660156-20.179688 7.136719-45.820313-10.722656-60.792969-17.859375-14.976562-43.894531-14.957031-61.734375.046875-17.835937 15-22.320313 40.648437-10.628906 60.808594 1.164062 2.011719 2.472656 3.929687 3.917969 5.746093l22.679687 26.933594c-17.34375 1.753906-32.652344 6.691406-38.519531 15.257813h-242.558594c-48.601562 0-88 39.398437-88 88 0 48.601562 39.398438 88 88 88h216c39.746094.042969 71.957031 32.253906 72 72v8c-.042969 39.746093-32.253906 71.957031-72 72h-242.558594c-5.847656-8.550781-21.121094-13.488281-38.402344-15.25l22.9375-27.375c1.214844-1.558594 2.324219-3.191407 3.328126-4.894531l.085937-.136719c.074219-.113281.128906-.230469.203125-.34375 11.65625-20.179688 7.132812-45.820313-10.726562-60.792969-17.859376-14.976562-43.894532-14.957031-61.734376.046875-17.835937 15-22.320312 40.648437-10.628906 60.808594 1.164063 2.011719 2.472656 3.929687 3.921875 5.746093l22.679688 26.933594c-22.203125 2.242188-41.105469 9.65625-41.105469 23.257813 0 16.574219 28.128906 24 56 24 22.894531 0 45.9375-5.023438 53.441406-16zm297.375-396.28125c-.925781-1.179688-1.769531-2.421875-2.527344-3.71875-7.761718-13.449219-4.75-30.527344 7.148438-40.507813 11.894531-9.980468 29.238281-9.980468 41.132812 0 11.898438 9.980469 14.910157 27.058594 7.148438 40.507813l6.929688 4-7-3.894531c-.648438 1.109374-1.367188 2.179687-2.152344 3.199218l-24.9375 29.78125-.496094.546875-.550781-.585937zm25.183594 52.28125c22.113281 0 35.511719 5.039062 39.273438 8-3.761719 2.960937-17.160157 8-39.273438 8s-35.511719-5.039063-39.273438-8c3.761719-2.960938 17.160157-8 39.273438-8zm-401.183594 275.71875c-.925781-1.179688-1.769531-2.421875-2.527344-3.71875-7.761718-13.449219-4.75-30.527344 7.148438-40.507813 11.894531-9.980468 29.238281-9.980468 41.132812 0 11.898438 9.980469 14.910157 27.058594 7.148438 40.507813l6.929688 4-7-3.894531c-.648438 1.109374-1.367188 2.179687-2.152344 3.199218l-24.9375 29.78125-.496094.546875-.550781-.585937zm25.183594 52.28125c22.113281 0 35.511719 5.039062 39.273438 8-3.761719 2.960937-17.160157 8-39.273438 8s-35.511719-5.039063-39.273438-8c3.761719-2.960938 17.160157-8 39.273438-8zm0 0"/><path d="m72 376.511719c0 8.835937-7.164062 16-16 16s-16-7.164063-16-16c0-8.835938 7.164062-16 16-16s16 7.164062 16 16zm0 0"/><path d="m448 48.511719c0 8.835937-7.164062 16-16 16s-16-7.164063-16-16c0-8.835938 7.164062-16 16-16s16 7.164062 16 16zm0 0"/><path d="m210.34375 198.167969 11.3125-11.3125-32-32c-3.125-3.121094-8.1875-3.121094-11.3125 0l-32 32 11.3125 11.3125 18.34375-18.34375v25.375l-29.65625 29.65625 11.3125 11.3125 18.34375-18.34375v36.6875h16v-36.6875l18.34375 18.34375 11.3125-11.3125-29.65625-29.65625v-25.375zm0 0"/><path d="m272 344.511719v24c0 8.835937 7.164062 16 16 16h16v48h16v-48h16c8.835938 0 16-7.164063 16-16v-16h-16v16h-16v-48h-16v48h-16v-24zm0 0"/><path d="m48 88.511719h52c24.300781 0 44-19.699219 44-44s-19.699219-44-44-44c-17.445312-.074219-33.253906 10.265625-40.175781 26.28125-3.757813-1.507813-7.773438-2.285157-11.824219-2.28125-17.671875 0-32 14.328125-32 32s14.328125 32 32 32zm0-48c4.109375.007812 8.058594 1.609375 11.015625 4.464843 2.160156 2.0625 5.292969 2.753907 8.121094 1.78125 2.828125-.96875 4.878906-3.433593 5.320312-6.390624 1.933594-13.714844 13.691407-23.898438 27.542969-23.855469 15.464844 0 28 12.535156 28 28 0 15.464843-12.535156 28-28 28h-52c-8.835938 0-16-7.164063-16-16 0-8.835938 7.164062-16 16-16zm0 0"/><path d="m216 415.375v17.136719h16v-17.136719c14.085938-3.636719 23.945312-16.316406 24-30.863281-.003906-5.628907-1.511719-11.152344-4.367188-16 2.855469-4.847657 4.363282-10.371094 4.367188-16 0-17.671875-14.328125-32-32-32s-32 14.328125-32 32c.003906 5.628906 1.511719 11.152343 4.367188 16-2.855469 4.847656-4.363282 10.371093-4.367188 16 .054688 14.546875 9.914062 27.226562 24 30.863281zm-3.832031-52.214844c-2.671875-2.90625-4.15625-6.703125-4.167969-10.648437 0-8.835938 7.164062-16 16-16s16 7.164062 16 16c-.011719 3.945312-1.496094 7.742187-4.167969 10.648437-2.738281 3.042969-2.738281 7.660156 0 10.703125 2.671875 2.90625 4.15625 6.703125 4.167969 10.648438 0 8.835937-7.164062 16-16 16s-16-7.164063-16-16c.011719-3.945313 1.496094-7.742188 4.167969-10.648438 2.738281-3.042969 2.738281-7.660156 0-10.703125zm0 0"/><path d="m280 104.511719v-17.136719c11.207031-2.832031 19.992188-11.523438 22.945312-22.699219 2.949219-11.175781-.398437-23.074219-8.746093-31.066406 1.195312-2.886719 1.804687-5.976563 1.800781-9.097656 0-13.253907-10.746094-24-24-24s-24 10.746093-24 24c-.003906 3.121093.605469 6.210937 1.800781 9.097656-8.347656 7.992187-11.695312 19.890625-8.746093 31.066406 2.953124 11.175781 11.738281 19.867188 22.945312 22.699219v17.136719zm-24-48c.035156-5.820313 3.234375-11.15625 8.351562-13.929688 2.179688-1.199219 3.671876-3.347656 4.042969-5.808593.371094-2.457032-.421875-4.949219-2.148437-6.742188-3.042969-3.152344-2.988282-8.167969.128906-11.25s8.132812-3.082031 11.25 0 3.171875 8.097656.128906 11.25c-1.726562 1.792969-2.519531 4.285156-2.148437 6.742188.371093 2.460937 1.863281 4.609374 4.042969 5.808593 6.820312 3.757813 9.933593 11.890625 7.359374 19.242188-2.570312 7.351562-10.074218 11.769531-17.75 10.453125-7.675781-1.3125-13.28125-7.976563-13.257812-15.765625zm0 0"/></svg>