<?xml version="1.0" encoding="iso-8859-1"?>
<!-- Generator: Adobe Illustrator 19.0.0, SVG Export Plug-In . SVG Version: 6.00 Build 0)  -->
<svg version="1.1" id="Capa_1" xmlns="http://www.w3.org/2000/svg" xmlns:xlink="http://www.w3.org/1999/xlink" x="0px" y="0px"
	 viewBox="0 0 480 480" style="enable-background:new 0 0 480 480;" xml:space="preserve">
<g>
	<g>
		<path d="M279.858,142.452c-13.947-14.073-35.849-16.441-52.482-5.676c-2.776-22.918-23.605-39.246-46.523-36.47
			c-9.302,1.127-17.956,5.347-24.573,11.982l-2.344,2.344l-2.344-2.344c-16.379-16.379-42.933-16.379-59.312,0
			c-16.379,16.379-16.379,42.933,0,59.312l56,56c3.124,3.123,8.188,3.123,11.312,0l11.32-11.32l41.368,41.376
			c3.124,3.123,8.188,3.123,11.312,0l56-56C296.014,185.381,296.133,158.874,279.858,142.452z M153.936,210.632l-50.344-50.344
			c-10.104-10.142-10.104-26.546,0-36.688c10.126-10.131,26.548-10.135,36.679-0.009c0.003,0.003,0.006,0.006,0.009,0.009l8,8
			c3.124,3.123,8.188,3.123,11.312,0l8-8c10.266-9.799,26.422-9.799,36.688,0c10.059,10.036,10.145,26.306,0.192,36.448
			l-0.344,0.392L153.936,210.632z M268.265,190.327c-0.003,0.003-0.006,0.006-0.009,0.009l-50.344,50.344L182.2,204.96
			l33.368-33.368c0.136-0.104,0.208-0.24,0.312-0.344l15.688-17.6c10.266-9.799,26.422-9.799,36.688,0
			C278.387,163.774,278.391,180.196,268.265,190.327z"/>
	</g>
</g>
<g>
	<g>
		<path d="M328,36H40c-4.418,0-8,3.582-8,8v280c0,4.418,3.582,8,8,8h288c4.418,0,8-3.582,8-8V44C336,39.582,332.418,36,328,36z
			 M320,316H48V52h272V316z"/>
	</g>
</g>
<g>
	<g>
		<path d="M472,52H368V12c0-4.418-3.582-8-8-8H8c-4.418,0-8,3.582-8,8v408c0,4.418,3.582,8,8,8h104v40c0,4.418,3.582,8,8,8h352
			c4.418,0,8-3.582,8-8V60C480,55.582,476.418,52,472,52z M368,356V100h64v264h-64V356z M16,20h336v328H16V20z M16,412v-48h336v48
			H16z M464,460H128v-32h232c4.418,0,8-3.582,8-8v-8h96V460z M464,396h-96v-16h72c4.418,0,8-3.582,8-8V92c0-4.418-3.582-8-8-8h-72
			V68h96V396z"/>
	</g>
</g>
<g>
</g>
<g>
</g>
<g>
</g>
<g>
</g>
<g>
</g>
<g>
</g>
<g>
</g>
<g>
</g>
<g>
</g>
<g>
</g>
<g>
</g>
<g>
</g>
<g>
</g>
<g>
</g>
<g>
</g>
</svg>
