<svg height="482pt" viewBox="0 -13 482.31339 482" width="482pt" xmlns="http://www.w3.org/2000/svg"><g fill="#168de2"><path d="m305.105469 392.15625c-17.023438 0-33.894531-3.207031-49.730469-9.457031l-52.734375-20.796875c-63.242187-24.617188-132.457031-29.5-198.527344-14.007813l-3.679687-15.570312c69.25-16.226563 141.792968-11.097657 208.070312 14.71875l52.742188 20.800781c40.691406 16.039062 86.890625 8.59375 120.480468-19.414062 23.449219-19.445313 27.316407-53.949219 8.761719-78.105469l-.6875-.894531c-5.457031-7.175782-13.636719-11.773438-22.605469-12.703126-8.964843-.925781-17.914062 1.898438-24.722656 7.804688l-1.601562 1.351562c-7.179688 6.113282-11.480469 14.945313-11.859375 24.367188-.375 9.417969 3.199219 18.570312 9.867187 25.234375l-11.3125 11.3125c-9.820312-9.808594-15.097656-23.277344-14.554687-37.148437.546875-13.871094 6.859375-26.882813 17.421875-35.890626l1.597656-1.359374c10.140625-8.796876 23.464844-13.011719 36.820312-11.640626 13.351563 1.371094 25.542969 8.207032 33.683594 18.878907l.6875.894531c23.804688 30.960938 18.855469 75.203125-11.199218 100.136719-24.390626 20.355469-55.152344 31.5-86.917969 31.488281zm0 0"/><path d="m305.070312 456.15625c-25.039062.011719-49.859374-4.703125-73.148437-13.902344l-52.746094-20.800781c-55.761719-21.820313-117.203125-24.460937-174.632812-7.503906l-4.542969-15.34375c60.859375-17.949219 125.964844-15.132813 185.046875 8l52.738281 20.800781c21.425782 8.449219 44.253906 12.773438 67.285156 12.75 42.96875-.03125 84.574219-15.097656 117.601563-42.582031 49.902344-41.382813 58.125-114.824219 18.617187-166.21875l-.695312-.910157c-16.191406-21.160156-40.402344-34.695312-66.910156-37.402343-26.507813-2.703125-52.953125 5.660156-73.082032 23.113281l-1.859374 1.601562c-20.46875 17.800782-32.648438 43.289063-33.644532 70.398438l-16-.574219c1.179688-31.542969 15.371094-61.1875 39.199219-81.890625l1.847656-1.597656c23.476563-20.339844 54.3125-30.078125 85.214844-26.910156 30.898437 3.164062 59.117187 18.953125 77.984375 43.628906l.695312.914062c44.730469 58.1875 35.429688 141.332032-21.054687 188.199219-35.921875 29.867188-81.164063 46.222657-127.878906 46.230469zm0 0"/><path d="m305.105469 424.15625c-21.039063 0-41.886719-3.960938-61.457031-11.679688l-52.738282-20.800781c-59.421875-23.542969-124.835937-27.371093-186.597656-10.917969l-4.082031-15.464843c65.058593-17.332031 133.960937-13.292969 196.546875 11.527343l52.734375 20.800782c51.582031 20.308594 110.136719 10.851562 152.703125-24.664063 36.632812-30.410156 42.664062-84.34375 13.65625-122.097656l-.734375-.957031c-10.824219-14.167969-27.019531-23.234375-44.753907-25.050782-17.734374-1.816406-35.429687 3.773438-48.902343 15.449219l-1.816407 1.601563c-13.777343 11.957031-21.96875 29.105468-22.617187 47.335937-.644531 18.234375 6.3125 35.917969 19.210937 48.824219l-11.3125 11.308594c-16.042968-16.042969-24.695312-38.03125-23.890624-60.707032.808593-22.671874 11-43.992187 28.136718-58.859374l1.816406-1.601563c16.804688-14.570313 38.886719-21.554687 61.015626-19.289063 22.128906 2.261719 42.339843 13.570313 55.847656 31.242188l.730468.96875c34.242188 44.570312 27.101563 108.246094-16.160156 144.128906-30.125 25.128906-68.109375 38.898438-107.335937 38.902344zm0 0"/></g><path d="m26.273438 288.15625 204.359374-24c-4.679687 32.667969-31.507812 57.652344-64.425781 60l-123.933593 4zm0 0" fill="#924d09"/><path d="m91.136719 253.230469 91.496093-13.074219c20.675782-39.28125 24.09375-85.394531 9.425782-127.292969-14.664063-41.898437-46.09375-75.816406-86.753906-93.625l-7.03125-3.082031 22.191406 50.863281c19.109375 43.777344 17.640625 93.804688-4 136.386719zm0 0" fill="#ffcb5a"/><path d="m346.273438 40.15625c-4.417969 0-8-3.582031-8-8 0-8.835938-7.164063-16-16-16v-16c9.1875-.003906 17.933593 3.953125 24 10.855469 6.0625-6.902344 14.808593-10.859375 24-10.855469v16c-8.839844 0-16 7.164062-16 16 0 4.417969-3.582032 8-8 8zm0 0" fill="#454545"/><path d="m402.273438 64.15625c-4.417969 0-8-3.582031-8-8 0-8.835938-7.164063-16-16-16v-16c9.1875-.003906 17.933593 3.953125 24 10.855469 6.0625-6.902344 14.808593-10.859375 24-10.855469v16c-8.839844 0-16 7.164062-16 16 0 4.417969-3.582032 8-8 8zm0 0" fill="#454545"/></svg>